<?xml version="1.0" standalone="no"?>
<!DOCTYPE svg PUBLIC "-//W3C//DTD SVG 20010904//EN"
 "http://www.w3.org/TR/2001/REC-SVG-20010904/DTD/svg10.dtd">
<svg version="1.0" xmlns="http://www.w3.org/2000/svg"
 width="16.000000pt" height="16.000000pt" viewBox="0 0 16.000000 16.000000"
 preserveAspectRatio="xMidYMid meet">
<metadata>
Created by potrace 1.11, written by Peter Selinger 2001-2013
</metadata>
<g transform="translate(0.000000,16.000000) scale(0.006154,-0.006154)"
fill="#000000" stroke="none">
<path d="M1068 2564 c-261 -47 -496 -173 -685 -367 -106 -109 -167 -193 -228
-313 -93 -181 -135 -365 -135 -584 0 -364 127 -668 383 -917 109 -106 193
-167 313 -228 181 -93 365 -135 584 -135 219 0 403 42 584 135 120 61 204 122
313 228 197 192 321 426 368 693 19 112 19 336 0 448 -33 186 -112 375 -221
527 -67 92 -213 237 -305 302 -144 102 -336 181 -515 212 -108 19 -350 18
-456 -1z m612 -644 l0 -60 -260 0 -260 0 0 -220 0 -220 240 0 240 0 0 -65 0
-65 -240 0 -240 0 0 -290 0 -290 -80 0 -80 0 0 635 0 635 340 0 340 0 0 -60z"/>
</g>
</svg>
