<?xml version="1.0" standalone="no"?>
<!DOCTYPE svg PUBLIC "-//W3C//DTD SVG 20010904//EN"
 "http://www.w3.org/TR/2001/REC-SVG-20010904/DTD/svg10.dtd">
<svg version="1.0" xmlns="http://www.w3.org/2000/svg"
 width="16.000000pt" height="16.000000pt" viewBox="0 0 16.000000 16.000000"
 preserveAspectRatio="xMidYMid meet">
<metadata>
Created by potrace 1.11, written by Peter Selinger 2001-2013
</metadata>
<g transform="translate(0.000000,16.000000) scale(0.006154,-0.006154)"
fill="#000000" stroke="none">
<path d="M1150 2593 c-291 -44 -519 -149 -720 -330 -286 -257 -434 -604 -425
-993 2 -80 6 -158 10 -175 21 -100 28 -128 51 -200 61 -192 163 -356 318 -510
197 -196 395 -303 667 -361 117 -25 381 -25 499 0 494 106 869 455 1004 936 9
30 18 73 22 95 3 22 10 60 14 85 9 48 6 306 -4 355 -4 17 -11 53 -16 80 -29
142 -104 317 -195 456 -61 92 -247 279 -340 341 -147 98 -318 169 -490 204
-74 15 -333 26 -395 17z m-85 -747 c73 -26 77 -32 53 -94 -14 -35 -24 -49 -32
-43 -11 8 -75 32 -106 38 -8 2 -44 4 -80 4 -118 3 -198 -54 -207 -145 -9 -86
35 -139 162 -196 213 -96 254 -125 295 -207 36 -69 35 -196 0 -267 -32 -62
-97 -119 -169 -147 -82 -33 -257 -33 -356 -2 -104 34 -102 32 -82 97 10 31 19
56 21 56 2 0 24 -9 48 -20 128 -56 278 -57 357 -1 92 66 90 215 -4 287 -19 14
-83 46 -141 70 -200 83 -279 172 -273 309 6 129 82 223 216 265 74 24 224 21
298 -4z m985 -56 l0 -60 -165 0 -165 0 0 -480 0 -480 -70 0 -70 0 0 480 0 480
-165 0 -165 0 0 60 0 60 400 0 400 0 0 -60z"/>
</g>
</svg>
