<?xml version="1.0" standalone="no"?>
<!DOCTYPE svg PUBLIC "-//W3C//DTD SVG 20010904//EN"
 "http://www.w3.org/TR/2001/REC-SVG-20010904/DTD/svg10.dtd">
<svg version="1.0" xmlns="http://www.w3.org/2000/svg"
 width="16.000000pt" height="16.000000pt" viewBox="0 0 16.000000 16.000000"
 preserveAspectRatio="xMidYMid meet">
<metadata>
Created by potrace 1.11, written by Peter Selinger 2001-2013
</metadata>
<g transform="translate(0.000000,16.000000) scale(0.006154,-0.006154)"
fill="#000000" stroke="none">
<path d="M1150 2593 c-288 -44 -516 -147 -715 -325 -288 -257 -439 -607 -430
-998 2 -80 6 -158 10 -175 21 -100 28 -128 51 -200 139 -439 513 -770 985
-871 117 -25 381 -25 499 0 350 75 641 270 832 558 92 139 173 335 194 473 3
22 10 60 14 85 9 48 6 306 -4 355 -4 17 -11 53 -16 80 -29 142 -104 317 -195
456 -61 92 -247 279 -340 341 -137 91 -318 169 -460 198 -27 5 -63 12 -80 16
-35 7 -308 13 -345 7z m-345 -877 c79 -35 129 -104 134 -184 5 -83 -33 -156
-105 -201 l-44 -27 30 -18 c17 -9 39 -35 50 -56 18 -35 55 -157 66 -214 2 -13
10 -42 18 -65 l15 -41 -54 0 c-65 0 -72 11 -101 154 -31 158 -80 206 -209 206
l-65 0 0 -180 0 -180 -54 0 -55 0 0 398 c1 219 4 403 7 409 10 16 57 20 202
18 94 -2 135 -6 165 -19z m1253 -45 c62 -39 93 -94 99 -175 9 -117 -49 -218
-231 -397 l-100 -99 177 0 177 0 0 -45 0 -45 -255 0 -255 0 0 30 c0 26 22 53
153 183 175 176 219 239 225 327 8 113 -39 165 -153 165 -59 0 -78 -4 -118
-28 -27 -16 -50 -27 -52 -25 -1 1 -10 17 -19 35 -16 31 -15 32 12 52 27 19 86
45 127 55 11 3 53 3 93 1 60 -3 80 -8 120 -34z m-536 7 c2 -13 2 -33 0 -45 -4
-23 -7 -23 -152 -23 l-148 0 -6 -27 c-3 -16 -8 -46 -11 -68 -3 -22 -8 -54 -11
-72 l-6 -32 58 0 c75 0 109 -7 159 -31 89 -43 137 -128 130 -229 -8 -109 -78
-198 -185 -234 -73 -25 -235 -13 -289 22 -12 8 -13 16 -3 49 l12 40 55 -19
c73 -25 157 -25 211 2 104 50 124 196 38 267 -49 40 -92 51 -195 49 l-89 -2 4
25 c3 14 8 43 10 65 8 60 15 113 26 190 5 39 10 76 10 83 0 9 45 12 189 12
189 0 190 0 193 -22z"/>
<path d="M558 1653 c-16 -4 -18 -20 -18 -154 l0 -149 66 0 c154 0 224 51 224
163 0 55 -30 102 -77 123 -36 15 -156 26 -195 17z"/>
</g>
</svg>
